<mxfile host="65bd71144e">
    <diagram id="zdAgHuyqyuB-cW_eImJy" name="Page-1">
        <mxGraphModel dx="959" dy="779" grid="1" gridSize="10" guides="1" tooltips="1" connect="1" arrows="1" fold="1" page="1" pageScale="1" pageWidth="850" pageHeight="1100" math="0" shadow="0">
            <root>
                <mxCell id="0"/>
                <mxCell id="1" parent="0"/>
                <mxCell id="2" value="CLASS winkelwagen" style="swimlane;childLayout=stackLayout;resizeParent=1;resizeParentMax=0;startSize=20;html=1;" vertex="1" parent="1">
                    <mxGeometry x="60" y="50" width="760" height="420" as="geometry"/>
                </mxCell>
                <mxCell id="3" value="Controller" style="swimlane;startSize=20;html=1;" vertex="1" parent="2">
                    <mxGeometry y="20" width="170" height="400" as="geometry"/>
                </mxCell>
                <mxCell id="49" style="edgeStyle=none;html=1;exitX=0.5;exitY=1;exitDx=0;exitDy=0;entryX=0.5;entryY=0;entryDx=0;entryDy=0;" edge="1" parent="3" source="5" target="40">
                    <mxGeometry relative="1" as="geometry"/>
                </mxCell>
                <mxCell id="5" value="Initialisatie" style="rounded=0;whiteSpace=wrap;html=1;" vertex="1" parent="3">
                    <mxGeometry x="25" y="40" width="120" height="60" as="geometry"/>
                </mxCell>
                <mxCell id="50" style="edgeStyle=none;html=1;exitX=0.5;exitY=1;exitDx=0;exitDy=0;" edge="1" parent="3" source="40" target="41">
                    <mxGeometry relative="1" as="geometry"/>
                </mxCell>
                <mxCell id="40" value="Ophalen winkelwagen" style="rounded=0;whiteSpace=wrap;html=1;" vertex="1" parent="3">
                    <mxGeometry x="25" y="180" width="120" height="60" as="geometry"/>
                </mxCell>
                <mxCell id="41" value="Winkelwagen tonen" style="rounded=0;whiteSpace=wrap;html=1;" vertex="1" parent="3">
                    <mxGeometry x="25" y="320" width="120" height="60" as="geometry"/>
                </mxCell>
                <mxCell id="4" value="Business logic" style="swimlane;startSize=20;html=1;" vertex="1" parent="2">
                    <mxGeometry x="170" y="20" width="370" height="400" as="geometry"/>
                </mxCell>
                <mxCell id="38" value="Bereken optimale aantallen van iedere boodschap" style="rounded=0;whiteSpace=wrap;html=1;" vertex="1" parent="4">
                    <mxGeometry x="210" y="310" width="120" height="50" as="geometry"/>
                </mxCell>
                <mxCell id="57" style="edgeStyle=none;html=1;exitX=1;exitY=0.5;exitDx=0;exitDy=0;entryX=0;entryY=0.5;entryDx=0;entryDy=0;" edge="1" parent="4" source="44" target="52">
                    <mxGeometry relative="1" as="geometry"/>
                </mxCell>
                <mxCell id="58" style="edgeStyle=none;html=1;exitX=1;exitY=0.5;exitDx=0;exitDy=0;entryX=0;entryY=0.5;entryDx=0;entryDy=0;" edge="1" parent="4" source="44" target="38">
                    <mxGeometry relative="1" as="geometry"/>
                </mxCell>
                <mxCell id="59" style="edgeStyle=none;html=1;exitX=1;exitY=0.5;exitDx=0;exitDy=0;entryX=0;entryY=0.5;entryDx=0;entryDy=0;" edge="1" parent="4" source="44" target="53">
                    <mxGeometry relative="1" as="geometry"/>
                </mxCell>
                <mxCell id="44" value="Ophalen winkelwagen" style="rounded=0;whiteSpace=wrap;html=1;" vertex="1" parent="4">
                    <mxGeometry x="30" y="180" width="120" height="60" as="geometry"/>
                </mxCell>
                <mxCell id="52" value="Ophalen gerecht" style="rounded=0;whiteSpace=wrap;html=1;" vertex="1" parent="4">
                    <mxGeometry x="210" y="70" width="120" height="40" as="geometry"/>
                </mxCell>
                <mxCell id="53" value="Ophalen user" style="rounded=0;whiteSpace=wrap;html=1;" vertex="1" parent="4">
                    <mxGeometry x="210" y="130" width="120" height="40" as="geometry"/>
                </mxCell>
                <mxCell id="75" value="Ophalen ingredient" style="rounded=0;whiteSpace=wrap;html=1;" vertex="1" parent="4">
                    <mxGeometry x="210" y="190" width="120" height="40" as="geometry"/>
                </mxCell>
                <mxCell id="76" value="Ophalen artikel" style="rounded=0;whiteSpace=wrap;html=1;" vertex="1" parent="4">
                    <mxGeometry x="210" y="250" width="120" height="40" as="geometry"/>
                </mxCell>
                <mxCell id="48" style="edgeStyle=none;html=1;exitX=0;exitY=0.5;exitDx=0;exitDy=0;entryX=1;entryY=0.5;entryDx=0;entryDy=0;" edge="1" parent="2" source="44" target="40">
                    <mxGeometry relative="1" as="geometry"/>
                </mxCell>
                <mxCell id="6" value="Model" style="swimlane;startSize=20;html=1;" vertex="1" parent="2">
                    <mxGeometry x="540" y="20" width="220" height="400" as="geometry"/>
                </mxCell>
                <mxCell id="47" value="Ophalen user" style="rounded=0;whiteSpace=wrap;html=1;" vertex="1" parent="6">
                    <mxGeometry x="50" y="250" width="120" height="40" as="geometry"/>
                </mxCell>
                <mxCell id="62" value="Gerecht" style="swimlane;fontStyle=0;childLayout=stackLayout;horizontal=1;startSize=30;horizontalStack=0;resizeParent=1;resizeParentMax=0;resizeLast=0;collapsible=1;marginBottom=0;whiteSpace=wrap;html=1;" vertex="1" parent="6">
                    <mxGeometry x="39.999999999999545" y="30" width="140" height="210" as="geometry"/>
                </mxCell>
                <mxCell id="63" value="ID" style="text;strokeColor=none;fillColor=none;align=left;verticalAlign=middle;spacingLeft=4;spacingRight=4;overflow=hidden;points=[[0,0.5],[1,0.5]];portConstraint=eastwest;rotatable=0;whiteSpace=wrap;html=1;" vertex="1" parent="62">
                    <mxGeometry y="30" width="140" height="20" as="geometry"/>
                </mxCell>
                <mxCell id="64" value="keuken_id" style="text;strokeColor=none;fillColor=none;align=left;verticalAlign=middle;spacingLeft=4;spacingRight=4;overflow=hidden;points=[[0,0.5],[1,0.5]];portConstraint=eastwest;rotatable=0;whiteSpace=wrap;html=1;" vertex="1" parent="62">
                    <mxGeometry y="50" width="140" height="20" as="geometry"/>
                </mxCell>
                <mxCell id="65" value="type_id" style="text;strokeColor=none;fillColor=none;align=left;verticalAlign=middle;spacingLeft=4;spacingRight=4;overflow=hidden;points=[[0,0.5],[1,0.5]];portConstraint=eastwest;rotatable=0;whiteSpace=wrap;html=1;" vertex="1" parent="62">
                    <mxGeometry y="70" width="140" height="20" as="geometry"/>
                </mxCell>
                <mxCell id="66" value="user_id" style="text;strokeColor=none;fillColor=none;align=left;verticalAlign=middle;spacingLeft=4;spacingRight=4;overflow=hidden;points=[[0,0.5],[1,0.5]];portConstraint=eastwest;rotatable=0;whiteSpace=wrap;html=1;" vertex="1" parent="62">
                    <mxGeometry y="90" width="140" height="20" as="geometry"/>
                </mxCell>
                <mxCell id="67" value="datum_toegevoegd" style="text;strokeColor=none;fillColor=none;align=left;verticalAlign=middle;spacingLeft=4;spacingRight=4;overflow=hidden;points=[[0,0.5],[1,0.5]];portConstraint=eastwest;rotatable=0;whiteSpace=wrap;html=1;" vertex="1" parent="62">
                    <mxGeometry y="110" width="140" height="20" as="geometry"/>
                </mxCell>
                <mxCell id="68" value="titel" style="text;strokeColor=none;fillColor=none;align=left;verticalAlign=middle;spacingLeft=4;spacingRight=4;overflow=hidden;points=[[0,0.5],[1,0.5]];portConstraint=eastwest;rotatable=0;whiteSpace=wrap;html=1;" vertex="1" parent="62">
                    <mxGeometry y="130" width="140" height="20" as="geometry"/>
                </mxCell>
                <mxCell id="69" value="korte_omschrijving" style="text;strokeColor=none;fillColor=none;align=left;verticalAlign=middle;spacingLeft=4;spacingRight=4;overflow=hidden;points=[[0,0.5],[1,0.5]];portConstraint=eastwest;rotatable=0;whiteSpace=wrap;html=1;" vertex="1" parent="62">
                    <mxGeometry y="150" width="140" height="20" as="geometry"/>
                </mxCell>
                <mxCell id="70" value="lange_omschrijving" style="text;strokeColor=none;fillColor=none;align=left;verticalAlign=middle;spacingLeft=4;spacingRight=4;overflow=hidden;points=[[0,0.5],[1,0.5]];portConstraint=eastwest;rotatable=0;whiteSpace=wrap;html=1;" vertex="1" parent="62">
                    <mxGeometry y="170" width="140" height="20" as="geometry"/>
                </mxCell>
                <mxCell id="71" value="afbeelding" style="text;strokeColor=none;fillColor=none;align=left;verticalAlign=middle;spacingLeft=4;spacingRight=4;overflow=hidden;points=[[0,0.5],[1,0.5]];portConstraint=eastwest;rotatable=0;whiteSpace=wrap;html=1;" vertex="1" parent="62">
                    <mxGeometry y="190" width="140" height="20" as="geometry"/>
                </mxCell>
                <mxCell id="73" value="Ophalen ingredient" style="rounded=0;whiteSpace=wrap;html=1;" vertex="1" parent="6">
                    <mxGeometry x="50" y="300" width="120" height="40" as="geometry"/>
                </mxCell>
                <mxCell id="74" value="Ophalen artikel" style="rounded=0;whiteSpace=wrap;html=1;" vertex="1" parent="6">
                    <mxGeometry x="50" y="350" width="120" height="40" as="geometry"/>
                </mxCell>
                <mxCell id="60" style="edgeStyle=none;html=1;exitX=0;exitY=0.5;exitDx=0;exitDy=0;entryX=1;entryY=0.5;entryDx=0;entryDy=0;" edge="1" parent="2" source="47" target="53">
                    <mxGeometry relative="1" as="geometry"/>
                </mxCell>
                <mxCell id="72" style="edgeStyle=none;html=1;exitX=0;exitY=0.5;exitDx=0;exitDy=0;entryX=1;entryY=0.5;entryDx=0;entryDy=0;" edge="1" parent="2" source="67" target="52">
                    <mxGeometry relative="1" as="geometry"/>
                </mxCell>
                <mxCell id="77" style="edgeStyle=none;html=1;exitX=0;exitY=0.5;exitDx=0;exitDy=0;entryX=1;entryY=0.5;entryDx=0;entryDy=0;" edge="1" parent="2" source="73" target="75">
                    <mxGeometry relative="1" as="geometry"/>
                </mxCell>
                <mxCell id="78" style="edgeStyle=none;html=1;exitX=0;exitY=0.5;exitDx=0;exitDy=0;entryX=1;entryY=0.5;entryDx=0;entryDy=0;" edge="1" parent="2" source="74" target="76">
                    <mxGeometry relative="1" as="geometry"/>
                </mxCell>
            </root>
        </mxGraphModel>
    </diagram>
</mxfile>